<svg xmlns="http://www.w3.org/2000/svg" width="32" height="40" viewBox="0 0 32 40">

<defs><radialGradient id="glow"><stop stop-color="#f2dcff"/><stop offset=".45" stop-color="#bb84e6"/><stop offset="1" stop-color="#563467" stop-opacity=".2"/></radialGradient></defs>
<path d="M16 3q11 3 11 14-1 6-5 10l2 8-7-6-6 8-1-11Q4 20 6 13 8 5 16 3Z" fill="#55406b" opacity=".7"/>
<path d="M16 6q8 3 8 11-1 7-7 10-8-3-9-10Q9 8 16 6Z" fill="url(#glow)"/>
<path d="m10 14 3-5m7 0 3 5m-13 8 4 6m8-6-4 7" stroke="#d3a9ee" stroke-width=".8" opacity=".75"/>
<circle cx="16" cy="16" r="4.2" fill="#e8ccfa"/><circle cx="16" cy="16" r="2" fill="#fff1ff"/>
<path d="m11 25-4 5m11-2 0 8m5-11 4 6" stroke="#9b6fc3" stroke-width="1.5" stroke-linecap="round" opacity=".8"/>
<circle cx="6" cy="9" r="1" fill="#d9bafa"/><circle cx="26" cy="20" r=".8" fill="#d9bafa"/>
<circle cx="15" cy="16" r="5.5" fill="none" stroke="#d5b0ec" stroke-width=".7" opacity=".65"/>
</svg>
