<svg xmlns="http://www.w3.org/2000/svg" width="104" height="78" viewBox="0 0 104 78">
<ellipse cx="52" cy="73" rx="43" ry="5" fill="#000" opacity="0.26"/>
<path d="M7 69 L30 32 L43 45 L60 20 L96 69 Z" fill="#46534e"/>
<path d="M30 32 L23 51 L34 47 L42 55 L43 45 Z M60 20 L52 43 L62 37 L73 48 Z" fill="#68766e"/>
<path d="M8 69 q14 -18 29 -7 q13 -15 28 -3 q17 -16 31 10z" fill="#314f43"/>
<path d="M19 68 q5 -22 11 -2 M73 69 q6 -25 12 -2" stroke="#58755d" stroke-width="3" fill="none"/>
<circle cx="43" cy="60" r="3" fill="#78b887" opacity="0.65"/>
</svg>
