<svg xmlns="http://www.w3.org/2000/svg" width="34" height="38" viewBox="0 0 34 38">
<ellipse cx="17" cy="34" rx="13" ry="2.5" fill="#171b1c" opacity=".2"/>
<path d="M9 13 25 13 28 30Q24 35 17 35Q10 35 6 30Z" fill="#67443b" stroke="#403a33" stroke-width=".7"/>
<path d="M9 14 17 15 17 34Q10 33 7 30Z" fill="#7f6b50" opacity=".65"/>
<path d="M10 20Q17 17 24 20L25 29Q18 33 9 29Z" fill="#ac473c"/>
<path d="M11 21Q17 19 23 21M12 25Q15 27 18 25" fill="none" stroke="#de8b73" stroke-width=".9"/>
<path d="M8 11 26 11 26 15Q18 18 8 15Z" fill="#ab8a59" stroke="#5c4d38" stroke-width=".7"/>
<path d="M10 12 24 12" stroke="#e5c98b" stroke-width=".9"/>
<path d="M12 17 12 19M22 17 22 19" stroke="#d7b377" stroke-width=".7"/>
<path d="M11 31Q17 34 23 31" fill="none" stroke="#cba272" stroke-width=".6"/>
</svg>
