<svg xmlns="http://www.w3.org/2000/svg" width="64" height="40" viewBox="0 0 64 40">

<path d="M32 0 64 16 32 32 0 16Z" fill="#9b8044" stroke="#5d4f32" stroke-width=".75"/>
<path d="M0 16 32 32v8L0 24Zm64 0L32 32v8l32-16Z" fill="#735c32"/>
<path d="M32 1 62 16 32 31 2 16Z" fill="#c1a45e"/>
<path d="m5 15 30 15m-23-18 30 15m-23-18 30 15m-23-18 30 15" stroke="#8f7440" stroke-width="1.1"/>
<path d="m8 16 24-12m-18 15 24-12m-18 15 24-12m-18 15 24-12" stroke="#e3c677" stroke-width="1"/>
<path d="m10 12 8 4m4-10 7 4m-11 13 9 4m16-17 8 4m-10 9 8 4" stroke="#f1db92" stroke-width=".7"/>
<path d="M0 16 32 32l32-16" fill="none" stroke="#59492f" stroke-width=".8"/>
</svg>
