<svg xmlns="http://www.w3.org/2000/svg" width="36" height="54" viewBox="0 0 36 54">
<ellipse cx="18" cy="50" rx="11" ry="3" fill="#000" opacity="0.25"/>
<rect x="12" y="24" width="12" height="17" rx="3" fill="#5d4b32"/>
<path d="M10 27 l16 0 l-4 12 h-8z" fill="#7f2f25"/>
<circle cx="18" cy="15" r="8" fill="#b98660"/>
<path d="M10 15 q3 -9 16 -6 q-1 6 -6 8 q-5 -3 -10 -2z" fill="#27221a"/>
<circle cx="15" cy="16" r="1.1" fill="#1b1712"/><circle cx="21" cy="16" r="1.1" fill="#1b1712"/>
<path d="M8 25 l-5 14" stroke="#b98660" stroke-width="4" stroke-linecap="round"/>
<path d="M28 19 l5 -10" stroke="#9a6a3a" stroke-width="2"/><path d="M29 9 l5 -4" stroke="#d8c28a" stroke-width="2"/>
<rect x="13" y="40" width="4" height="9" fill="#30281f"/><rect x="20" y="40" width="4" height="9" fill="#30281f"/>
</svg>