<svg xmlns="http://www.w3.org/2000/svg" width="42" height="46" viewBox="0 0 42 46">
<ellipse cx="21" cy="43" rx="14" ry="3.5" fill="#000" opacity="0.3"/>
<path d="M21 40 q-14 -8 -16 -20 q-1 -9 7 -12 q6 -2 9 4 q3 -6 9 -4 q8 3 7 12 q-2 12 -16 20 z" fill="#4a2a4c"/>
<path d="M21 34 q-9 -6 -11 -14 q-0.5 -6 4 -8 q4 -1.5 7 3 q3 -4.5 7 -3 q4.5 2 4 8 q-2 8 -11 14 z" fill="#6d3a70"/>
<circle cx="21" cy="20" r="4.5" fill="#c99df5"/>
<circle cx="21" cy="20" r="2" fill="#f0e4ff"/>
<path d="M10 12 q-4 -2 -5 -6 M32 12 q4 -2 5 -6 M21 40 q0 4 -2 5" stroke="#6d3a70" stroke-width="2" fill="none"/>
</svg>
