<svg xmlns="http://www.w3.org/2000/svg" width="56" height="54" viewBox="0 0 56 54">
<ellipse cx="28" cy="50" rx="20" ry="4.5" fill="#000" opacity="0.35"/>
<path d="M10 44 q-6 -20 8 -30 q10 -8 20 0 q14 10 8 30 q-8 8 -18 7 q-10 1 -18 -7 z" fill="#3a2a4c"/>
<path d="M16 38 q-3 -14 6 -21 q6 -5 12 0 q9 7 6 21 q-6 5 -12 4.5 q-6 0.5 -12 -4.5 z" fill="#4c3a60"/>
<circle cx="21" cy="22" r="3" fill="#c99df5"/><circle cx="35" cy="22" r="3" fill="#c99df5"/>
<circle cx="21" cy="22" r="1.2" fill="#1a1226"/><circle cx="35" cy="22" r="1.2" fill="#1a1226"/>
<path d="M14 12 l-4 -9 M42 12 l4 -9 M22 9 l-1 -7 M34 9 l1 -7" stroke="#9b6dd6" stroke-width="2.5" stroke-linecap="round"/>
<path d="M20 34 q8 5 16 0" stroke="#1a1226" stroke-width="2.5" fill="none"/>
<path d="M22 34 l1 4 M28 36 l0 4 M34 34 l-1 4" stroke="#e8e0f0" stroke-width="2"/>
<rect x="4" y="28" width="7" height="16" rx="3" fill="#3a2a4c"/>
<rect x="45" y="28" width="7" height="16" rx="3" fill="#3a2a4c"/>
</svg>
