<svg xmlns="http://www.w3.org/2000/svg" width="56" height="72" viewBox="0 0 56 72">
<ellipse cx="28" cy="68" rx="16" ry="5" fill="#000" opacity="0.25"/>
<path d="M26 66 Q24 44 30 26 L34 27 Q29 46 32 66 Z" fill="#8a6a42"/>
<path d="M27 46 h6 M26 56 h7 M28 36 h5" stroke="#6e5232" stroke-width="1.5"/>
<path d="M32 26 Q18 18 6 24 Q18 28 31 29 Z" fill="#3d7a4c"/>
<path d="M32 26 Q46 18 52 26 Q42 29 33 29 Z" fill="#2f6640"/>
<path d="M32 26 Q22 10 10 8 Q20 20 30 27 Z" fill="#4c8a58"/>
<path d="M32 26 Q42 10 50 10 Q42 21 34 27 Z" fill="#356f46"/>
<path d="M32 26 Q31 8 24 2 Q28 14 31 26 Z" fill="#57945f"/>
<circle cx="30" cy="28" r="2" fill="#b98c3f"/><circle cx="35" cy="29" r="2" fill="#a87c34"/>
</svg>
