<svg xmlns="http://www.w3.org/2000/svg" width="72" height="76" viewBox="0 0 72 76">
<ellipse cx="36" cy="72" rx="26" ry="5" fill="#000" opacity="0.35"/>
<path d="M14 62 q-8 -26 10 -40 q12 -9 24 0 q18 14 10 40 q-10 10 -22 9 q-12 1 -22 -9 z" fill="#5a5561"/>
<path d="M22 54 q-5 -18 8 -28 q6 -5 12 0 q13 10 8 28 q-7 6 -14 5.5 q-7 0.5 -14 -5.5 z" fill="#6d6875"/>
<circle cx="28" cy="30" r="4" fill="#6dd6c8"/><circle cx="44" cy="30" r="4" fill="#6dd6c8"/>
<circle cx="28" cy="30" r="1.6" fill="#eafffc"/><circle cx="44" cy="30" r="1.6" fill="#eafffc"/>
<path d="M26 44 l6 3 4 -3 4 3 6 -3" stroke="#2c2933" fill="none" stroke-width="2.5"/>
<rect x="2" y="34" width="12" height="24" rx="5" fill="#5a5561"/>
<rect x="58" y="34" width="12" height="24" rx="5" fill="#5a5561"/>
<path d="M20 14 l-3 -8 M36 10 l0 -8 M52 14 l3 -8" stroke="#6dd6c8" stroke-width="2.5" stroke-linecap="round"/>
<path d="M18 40 l8 -4 M46 36 l8 4" stroke="#42464f" stroke-width="2"/>
</svg>
