<svg xmlns="http://www.w3.org/2000/svg" width="64" height="66" viewBox="0 0 64 66">
<ellipse cx="32" cy="61" rx="21" ry="5" fill="#000" opacity="0.25"/>
<path d="M28 35 C25 45 19 50 14 59 M34 35 C39 46 45 51 51 59 M31 35 C30 46 29 54 28 63" stroke="#65412d" stroke-width="5" stroke-linecap="round" fill="none"/>
<path d="M32 12 C23 11 15 18 13 27 C8 29 7 39 16 43 C23 51 39 50 45 43 C56 42 59 31 51 25 C50 15 41 10 32 12Z" fill="#315f3b"/>
<circle cx="23" cy="26" r="12" fill="#3e7a47"/>
<circle cx="41" cy="25" r="11" fill="#284f35"/>
<circle cx="34" cy="17" r="10" fill="#4b8b52"/>
</svg>