<svg xmlns="http://www.w3.org/2000/svg" width="42" height="58" viewBox="0 0 42 58">
<ellipse cx="21" cy="54" rx="12" ry="3" fill="#000" opacity="0.25"/>
<path d="M13 26 q8 -3 16 0 l4 26 -24 0 z" fill="#a8d8e8"/>
<path d="M15 30 q6 4 12 0 v22 h-12z" fill="#7fb8d4"/>
<path d="M12 50 q9 4 18 0 l1 2 q-10 4 -20 0 z" fill="#e8eef2"/>
<path d="M14 27 L28 46" stroke="#7a5c3a" stroke-width="2.5" stroke-linecap="round"/>
<rect x="25" y="42" width="9" height="8" rx="1.5" fill="#7a5c3a"/>
<rect x="25" y="42" width="9" height="2.5" rx="1" fill="#5c4226"/>
<rect x="28.4" y="44.6" width="2.2" height="4.4" fill="#f4f8fa"/>
<rect x="27.3" y="45.7" width="4.4" height="2.2" fill="#f4f8fa"/>
<circle cx="21" cy="16" r="8" fill="#e8c39a"/>
<path d="M12 16 a9 9 0 0 1 18 0 l0 4 q-2 -5 -9 -5 q-7 0 -9 5 z" fill="#7fb8d4"/>
<path d="M11 15 q10 -6 20 0 l0 4 q-10 -6 -20 0 z" fill="#e8eef2"/>
<circle cx="18" cy="17.5" r="1.2" fill="#222"/>
<circle cx="24" cy="17.5" r="1.2" fill="#222"/>
<path d="M18 21.5 q3 1.6 6 0" stroke="#b58a5c" fill="none" stroke-width="1.2"/>
<rect x="9" y="27" width="4" height="11" rx="2" fill="#7fb8d4"/>
<rect x="29" y="27" width="4" height="11" rx="2" fill="#7fb8d4"/>
<path d="M8.6 36.5 q2.4 1.6 4.8 0 l0 2.5 q-2.4 1.6 -4.8 0 z" fill="#e8eef2"/>
<path d="M28.6 36.5 q2.4 1.6 4.8 0 l0 2.5 q-2.4 1.6 -4.8 0 z" fill="#e8eef2"/>
<path d="M9.5 36 q-2 -4 1 -6 q3 2 1 6 z" fill="#8fd4ec" opacity="0.95"/>
<path d="M10.5 30 l0 6" stroke="#4a7a8a" stroke-width="0.8"/>
</svg>
