<svg xmlns="http://www.w3.org/2000/svg" width="40" height="52" viewBox="0 0 40 52">
<ellipse cx="20" cy="48" rx="13" ry="3" fill="#000" opacity="0.22"/>
<path d="M12 47 C15 31 9 20 13 6 M18 47 C19 30 18 18 21 4 M25 47 C23 29 29 19 27 7 M31 47 C28 32 35 22 33 10" stroke="#6f8a42" stroke-width="3" fill="none" stroke-linecap="round"/>
<path d="M9 9 q5 -5 9 0 q-5 4 -9 0z M18 6 q5 -5 9 0 q-5 4 -9 0z M25 10 q6 -5 10 0 q-6 5 -10 0z" fill="#b2934e"/>
<path d="M9 35 q11 6 22 0" stroke="#9a6b34" stroke-width="3" fill="none"/>
</svg>