<svg xmlns="http://www.w3.org/2000/svg" width="56" height="52" viewBox="0 0 56 52">
<ellipse cx="28" cy="48" rx="21" ry="4.5" fill="#000" opacity="0.28"/>
<rect x="6" y="20" width="9" height="28" rx="2" fill="#8a8f99"/>
<rect x="5" y="16" width="11" height="6" rx="2" fill="#a8adb8"/>
<rect x="24" y="30" width="9" height="18" rx="2" fill="#8a8f99"/>
<polygon points="24,30 33,30 31,24 26,24" fill="#a8adb8"/>
<rect x="42" y="12" width="9" height="36" rx="2" fill="#8a8f99"/>
<rect x="41" y="8" width="11" height="6" rx="2" fill="#a8adb8"/>
<path d="M8 28 l5 0 M9 36 l4 0 M44 20 l5 0 M45 32 l4 0" stroke="#6a6f78" stroke-width="1.5"/>
<path d="M17 46 q4 -3 6 0 M35 46 q3 -2 5 0" stroke="#5cab4a" stroke-width="2" fill="none"/>
<circle cx="46.5" cy="26" r="1.5" fill="#6dd6c8" opacity="0.8"/>
</svg>
