<svg xmlns="http://www.w3.org/2000/svg" width="36" height="52" viewBox="0 0 36 52">
<ellipse cx="18" cy="49" rx="11" ry="3" fill="#000" opacity="0.25"/>
<path d="M12 24 q6 -3 12 0 l3 24 -18 0 z" fill="#4a5568"/>
<path d="M12 30 q6 3 12 0 M11 38 q7 3 14 0" stroke="#6dd6c8" stroke-width="1.2" fill="none" opacity="0.8"/>
<circle cx="18" cy="16" r="8" fill="#b8865a"/>
<path d="M10 14 a8 8 0 0 1 16 0 l0 4 q-2 6 -8 6 q-6 0 -8 -6 z" fill="#e8dcc0"/>
<circle cx="15" cy="15" r="1.8" fill="#1a1226"/>
<circle cx="21" cy="15" r="1.8" fill="#1a1226"/>
<circle cx="15" cy="15" r="0.6" fill="#6dd6c8"/>
<circle cx="21" cy="15" r="0.6" fill="#6dd6c8"/>
<path d="M14 20 l8 0 M15 22 l6 0" stroke="#8a7a55" stroke-width="1"/>
<path d="M10 8 l-3 -5 M14 6 l-1 -6 M22 6 l1 -6 M26 8 l3 -5" stroke="#e8dcc0" stroke-width="2" stroke-linecap="round"/>
<rect x="6" y="26" width="4" height="10" rx="2" fill="#b8865a"/>
<rect x="26" y="26" width="4" height="10" rx="2" fill="#b8865a"/>
<rect x="3" y="8" width="2.5" height="40" rx="1" fill="#5c4226"/>
<circle cx="4.2" cy="6" r="4" fill="#6dd6c8" opacity="0.85"/>
<circle cx="4.2" cy="6" r="1.8" fill="#eafffc"/>
</svg>
