<svg xmlns="http://www.w3.org/2000/svg" width="44" height="30" viewBox="0 0 44 30">
<ellipse cx="22" cy="27" rx="15" ry="3" fill="#000" opacity="0.3"/>
<path d="M4 18 q0 -8 12 -9 q10 -1 18 3 l6 -4 -2 7 q2 5 -4 7 q-12 4 -24 1 q-6 -1 -6 -5 z" fill="#3a2a4c"/>
<path d="M10 14 q8 -4 20 0" stroke="#5c4a70" fill="none" stroke-width="2"/>
<circle cx="35" cy="13" r="1.6" fill="#c99df5"/>
<path d="M30 10 l2 -4 M36 9 l3 -3" stroke="#9b6dd6" stroke-width="1.5"/>
<rect x="9" y="22" width="2.5" height="7" rx="1" fill="#2a1f38"/>
<rect x="17" y="23" width="2.5" height="6" rx="1" fill="#2a1f38"/>
<rect x="27" y="22" width="2.5" height="7" rx="1" fill="#2a1f38"/>
<path d="M4 18 q-3 -1 -3 -5" stroke="#3a2a4c" stroke-width="3" fill="none"/>
</svg>
