<svg xmlns="http://www.w3.org/2000/svg" width="32" height="48" viewBox="0 0 32 48">
<ellipse cx="16" cy="45" rx="10" ry="3" fill="#000" opacity="0.25"/>
<path d="M11 24 q5 -2 10 0 l2 16 -14 0 z" fill="#7a4a5c"/>
<path d="M10 40 l12 0" stroke="#5c3244" stroke-width="2"/>
<rect x="12" y="40" width="3" height="4" fill="#4a3a2a"/>
<rect x="17" y="40" width="3" height="4" fill="#4a3a2a"/>
<circle cx="16" cy="16" r="8" fill="#e8c49a"/>
<path d="M8 16 a8 8 0 0 1 16 0 l0 6 -3 -2 0 -4 q-5 -3 -10 0 l0 4 -3 2 z" fill="#6b4423"/>
<circle cx="13" cy="17" r="1.2" fill="#222"/>
<circle cx="19" cy="17" r="1.2" fill="#222"/>
<path d="M13 20.5 q3 2 6 0" stroke="#b8764a" fill="none" stroke-width="1.2"/>
<rect x="6" y="25" width="4" height="10" rx="2" fill="#e8c49a"/>
<rect x="22" y="25" width="4" height="10" rx="2" fill="#e8c49a"/>
<circle cx="8" cy="37" r="3.5" fill="#8a6238"/>
<path d="M6 35 q2 -2 4 0" stroke="#5c4226" fill="none" stroke-width="1.2"/>
</svg>
