<svg xmlns="http://www.w3.org/2000/svg" width="42" height="58" viewBox="0 0 32 48"><g transform="translate( 0  0) rotate( 0  16  37)">
<ellipse cx=" 16" cy=" 45.5" rx=" 10" ry=" 2" fill="#16151a" opacity=".25"/><path d="m 10  34  5  0  0  6 -1  4 -4  0 -1 -5Z" fill="#5b5747" stroke="#302d2b" stroke-width=".5"/><path d="m 17  34  5  0  0  6  1  4h -5l -1 -5Z" fill="#5b5747" stroke="#302d2b" stroke-width=".5"/><path d="m 9  42  5 -0.2  1  2 -2  1 -5  0Z" fill="#49392d"/><path d="m 18  42  5 -0.2  2  2 -1  1 -5  0Z" fill="#49392d"/><path d="m 10  24q 6 -2.5  12  0l 2  13q -8  4 -16  0Z" fill="#dfd3b4" stroke="#3f3b37" stroke-width=".55"/>
<path d="m 10  24  5  3  1  8 -7  1Zm 6  3  6 -3  2  12 -8 -1Z" fill="#4f8b6f" opacity=".25"/>
<path d="M 9  34q 7  2  14  0v 2q -7  2 -14  0Z" fill="#49392d"/><path d="M 15  34h 2v 2h -2Z" fill="#c4a879"/>
<g><path d="M 10  25Q 9  18  8  21" fill="none" stroke="#433d38" stroke-width="4.6" stroke-linecap="round"/><path d="M 10  25Q 9  18  8  21" fill="none" stroke="#dfd3b4" stroke-width="3.9" stroke-linecap="round"/><path d="M 8  21Q 8.5  16.5  9  12" fill="none" stroke="#76523d" stroke-width="3.5" stroke-linecap="round"/><path d="M 8  21Q 8.5  16.5  9  12" fill="none" stroke="#aa744e" stroke-width="2.8" stroke-linecap="round"/><ellipse cx=" 9" cy=" 12" rx=" 1.6" ry=" 2" fill="#d7a177" stroke="#76523d" stroke-width=".4"/><path d="m 8.2  12.5  1.7 0.2" stroke="#76523d" stroke-width=".3"/></g><g transform="translate( 32  0) scale( -1  1)"><path d="M 10  25Q 9  30  8  33" fill="none" stroke="#433d38" stroke-width="4.6" stroke-linecap="round"/><path d="M 10  25Q 9  30  8  33" fill="none" stroke="#dfd3b4" stroke-width="3.9" stroke-linecap="round"/><path d="M 8  33Q 11  36  14  39" fill="none" stroke="#76523d" stroke-width="3.5" stroke-linecap="round"/><path d="M 8  33Q 11  36  14  39" fill="none" stroke="#aa744e" stroke-width="2.8" stroke-linecap="round"/><ellipse cx=" 14" cy=" 39" rx=" 1.6" ry=" 2" fill="#d7a177" stroke="#76523d" stroke-width=".4"/><path d="m 13.2  39.5  1.7 0.2" stroke="#76523d" stroke-width=".3"/></g>
<path d="M 14  22h 4v 3h -4Z" fill="#aa744e"/>

<path d="M9 14Q9 7 16 6Q23 6 24 14L23 19Q21 24 16 24Q11 24 9 19Z" fill="#aa744e" stroke="#76523d" stroke-width=".45"/>
<path d="M10 14Q11 8 16 8Q19 8 21 10Q15 9 12 13L11 19Q9.5 18 10 14Z" fill="#d7a177" opacity=".55"/>
<path d="M9 16Q7 15 7 17.3Q7.2 19.4 9.4 19.7M23 16Q25 15 25 17.3Q24.8 19.4 22.6 19.7" fill="#aa744e" stroke="#76523d" stroke-width=".55"/>
<path d="M11 20Q12 22.5 15 23M21 20Q20 22.5 17 23" fill="none" stroke="#76523d" stroke-width=".35" opacity=".6"/>
<path d="M11.4 13.4 14.8 14.3M17.2 14.3 20.6 13.4" fill="none" stroke="#414b3c" stroke-width=".85" stroke-linecap="round"/><path d="M11.6 16.4Q13 15.4 14.8 16.2M17.2 16.2Q19 15.4 20.4 16.4" fill="#f0dfc6" stroke="#76523d" stroke-width=".45"/><circle cx="13.3" cy="16.1" r=".72" fill="#29322e"/><circle cx="18.7" cy="16.1" r=".72" fill="#29322e"/>
<path d="M15.9 16.7 15.2 19 16.7 19.3" fill="none" stroke="#76523d" stroke-width=".55" stroke-linecap="round"/>
<path d="M14.3 21Q16 20.6 17.7 21" fill="none" stroke="#76523d" stroke-width=".75" stroke-linecap="round"/>
<path d="M11.4 19.7 12.5 20.2M19.5 20.2 20.6 19.7" stroke="#d7a177" stroke-width=".45"/>


<path d="M 9  14q 0 -7  6 -9  7 -2  9  7l -4 -3 -5 -2 -4  5Z" fill="#414b3c"/>
<path d="m 11  10  4 -3  5  0.6" fill="none" stroke="#d7a177" stroke-width=".4" opacity=".4"/>
<path d="M 8  23q 8 -4  16  0l 4  18 -4  0 -3 -13 -2  11H 9l 2 -12 -3  13 -4 -1Z" fill="#e3d9be" stroke="#a99d85" stroke-width=".6"/><path d="m 12  25  8  9" stroke="#8b6c4c" stroke-width="1.5"/><path d="M 21  33h 7v 7h -7Z" fill="#785b3f"/><path d="m 24  34  0  5m -2.5 -2.5h 5" stroke="#e9e4c8" stroke-width="1"/><path d="m 13  29  5  1" stroke="#6e9b77" stroke-width=".8"/></g><path d="m 27  23  0 -5m -2.5  2.5h 5" stroke="#dcebcf" stroke-width="1"/><circle cx=" 27" cy=" 20.5" r="4" fill="#88c6a8" opacity=".25"/><path d="m 8  34  3  0  1  4 -5  0Z" fill="#87c7b7" stroke="#43695f" stroke-width=".5"/><path d="m 8  34  3  0" stroke="#d8eee0" stroke-width="1"/></svg>
